<?xml version="1.0"?>
<svg xmlns="http://www.w3.org/2000/svg" id="line" viewBox="0 0 64 64" width="512" height="512"><path d="M17,28v1.764l-4.208,8.417A1.947,1.947,0,0,0,14.534,41H17v8.722A3.281,3.281,0,0,0,20.278,53H30v8a1,1,0,0,0,1,1H43a1,1,0,0,0,1-1V49.414l5.707-5.707A1,1,0,0,0,50,43V28h1a1,1,0,0,0,1-1V3a1,1,0,0,0-1-1H25a5.006,5.006,0,0,0-5,5,4.948,4.948,0,0,0,1.026,3H21a5.006,5.006,0,0,0-5,5,4.948,4.948,0,0,0,1.026,3H17a5,5,0,0,0,0,10ZM48,42.586l-5.707,5.707A1,1,0,0,0,42,49V60H32V52a1,1,0,0,0-1-1H20.278A1.279,1.279,0,0,1,19,49.722V40a1,1,0,0,0-1-1l-3.419.075L18.9,30.447A1,1,0,0,0,19,30V28H38v5a1,1,0,0,0,1.707.707L42,31.414l2.293,2.293A1,1,0,0,0,46,33V28h2Zm-8-12V24h4v6.586l-1.293-1.293a1,1,0,0,0-1.414,0ZM50,26H46V24h4Zm0-4H36v2h2v2H26a3,3,0,0,1,0-6H50Zm0-8H39v2H50v2H28.586A2.819,2.819,0,0,1,26,15a2.819,2.819,0,0,1,2.586-3H50ZM32.035,4H50V6H43V8h7v2H32.035C30.932,10,30,8.626,30,7S30.932,4,32.035,4ZM25,4h3.828a5.849,5.849,0,0,0,0,6H25a3,3,0,0,1,0-6Zm-4,8h3.941a5.253,5.253,0,0,0,0,6H21a3,3,0,0,1,0-6Zm-4,8h5.026a4.9,4.9,0,0,0,0,6H17a3,3,0,0,1,0-6Z"/><rect x="35" y="14" width="2" height="2"/><rect x="39" y="6" width="2" height="2"/><rect x="32" y="22" width="2" height="2"/></svg>
