<?xml version="1.0" encoding="utf-8"?>
<!-- Generator: Adobe Illustrator 22.1.0, SVG Export Plug-In . SVG Version: 6.00 Build 0)  -->
<svg version="1.1" id="Layer_1" xmlns="http://www.w3.org/2000/svg" xmlns:xlink="http://www.w3.org/1999/xlink" x="0px" y="0px"
	 viewBox="0 0 1009 211.2" style="enable-background:new 0 0 1009 211.2;" xml:space="preserve">
<style type="text/css">
	.st0{fill:#111111;}
	.st1{opacity:0.8;fill:#007FFF;}
	.st2{opacity:0.7;fill:#007FFF;}
	.st3{opacity:0.6;fill:#007FFF;}
	.st4{opacity:0.5;fill:#007FFF;}
</style>
<g>
	<path class="st0" d="M391.4,79.8c0-2.9,0.8-5.1,2.4-6.7c1.6-1.6,3.8-2.3,6.8-2.3c2.8,0,5,0.8,6.6,2.3c1.6,1.6,2.4,3.8,2.4,6.7
		c0,2.7-0.8,4.9-2.4,6.5c-1.6,1.6-3.8,2.4-6.6,2.4c-2.9,0-5.2-0.8-6.8-2.4C392.2,84.7,391.4,82.5,391.4,79.8z"/>
	<rect x="392.4" y="101" class="st0" width="16.1" height="77.2"/>
</g>
<path class="st0" d="M507.7,178.2h-16.1V70.8h16.1V178.2z"/>
<path class="st0" d="M249.1,148.4c0,9.3-3.4,16.6-10.1,21.9c-6.7,5.3-16,7.9-27.8,7.9c-11.8,0-21.5-1.8-29-5.5l5-14
	c3.3,1.3,6.7,2.3,10.2,3.2c5.4,1.3,10.4,1.9,15,1.9c6.8,0,11.8-1.3,15-3.9c3.2-2.6,4.8-6,4.8-10.4c0-3.9-1.5-7.2-4.4-9.9
	c-3-2.7-9.1-5.9-18.3-9.7c-9.5-3.9-16.3-8.3-20.2-13.2c-3.9-5-5.9-10.9-5.9-17.9c0-8.7,3.1-15.6,9.3-20.6c6.2-5,14.5-7.5,25-7.5
	c10,0,20,2.2,29.9,6.6l-4.9,14.2c-9.3-3.9-18.1-6.1-25.4-6.1c-5.5,0-9.7,1.2-12.6,3.6c-2.9,2.4-4.3,5.6-4.3,9.5c0,2.7,0.6,5,1.7,7
	c1.1,1.9,3,3.8,5.6,5.5c2.6,1.7,7.3,4,14.2,6.8c7.7,3.2,13.3,6.2,16.9,8.9c3.6,2.8,6.2,5.9,7.9,9.4
	C248.2,139.6,249.1,143.7,249.1,148.4z"/>
<path class="st0" d="M296,178.2c-11.6,0-20.7-3.4-27.2-10.1c-6.5-6.8-9.8-16.1-9.8-27.9c0-12.2,3-21.7,9.1-28.7
	c6.1-7,14.4-10.4,25-10.4c9.8,0,17.6,3,23.3,9c5.7,6,8.6,14.2,8.6,24.7v8.6h-49.7c0.2,7.2,2.2,12.8,5.9,16.7
	c3.7,3.9,8.9,5.8,15.6,5.8c4.4,0,8.5-0.4,12.3-1.2c3.8-0.8,7.9-2.2,12.2-4.1l-5.2,15c-2.2,0.7-4.3,1.3-6.5,1.8
	C305.6,177.9,301.1,178.2,296,178.2z M293.1,113c-5,0-9.1,1.6-12.1,4.8c-3,3.2-4.8,7.8-5.4,14h33.8c-0.1-6.2-1.6-10.8-4.4-14
	S298.1,113,293.1,113z"/>
<path class="st0" d="M470.8,178.2l-4.1-11.8c-3.6,4.5-7.3,7.7-10.9,9.3c-3.6,1.6-8.3,2.5-14,2.5c-7.3,0-13-2-17.2-5.9
	c-4.1-4-6.2-9.5-6.2-16.8c0-7.7,2.9-13.5,8.6-17.4c5.7-3.9,14.4-6,26.1-6.4l12.9-0.4v-4c0-4.8-1.1-8.3-3.3-10.7
	c-2.2-2.4-5.7-3.5-10.3-3.5c-3.8,0-7.5,0.6-11,1.7c-3.5,1.1-7.9,2.9-11.1,4.5l-4.1-11.8c4-2.1,8.5-3.7,13.3-4.8
	c4.8-1.1,9.3-1.7,13.6-1.7c9.5,0,16.6,2.1,21.5,6.2c4.8,4.1,7.2,10.6,7.2,19.5v51.6H470.8z M446.7,165.9c5.9,0,10.6-1.6,14.1-4.9
	c3.5-3.3,5.3-7.9,5.3-13.8v-6.6l-9.7,0.4c-7.6,0.3-13.1,1.5-16.6,3.8c-3.5,2.3-5.2,5.7-5.2,10.4c0,3.4,1,6,3,7.9
	C439.7,165,442.7,165.9,446.7,165.9z"/>
<path class="st0" d="M373.4,100.3c3.2,0,5.9,0.2,8,0.7l-5,14.4c-1.2-0.1-2.4-0.2-3.7-0.2c-6.4,0-11.7,2.1-15.7,6.3
	c-4,4.2-6,9.7-6,16.4v40.3h-16.1V101h11.5l4.6,13.1c2.4-4.1,5.5-7.4,9.3-9.8C364.4,101.6,368.7,100.3,373.4,100.3z"/>
<path class="st0" d="M910.9,165.2c3.9,0,7.9-0.6,11.8-1.9v12.1c-1.8,0.8-4.1,1.4-6.9,2c-2.8,0.5-5.7,0.8-8.7,0.8
	c-15.3,0-22.9-8-22.9-24.1v-40.9l-3.5,0l3.8-10.8l5.9-16.9h9.9V101h22.4v12.2h-22.4v40.6c0,3.9,1,6.8,2.9,8.6
	C905.2,164.3,907.8,165.2,910.9,165.2z"/>
<path class="st0" d="M622.6,178.2l-10-27.9h-38.3l-9.8,27.9h-17.3l40-107.5H600L640,178.2H622.6z M608.3,136.3l-14.7-42.2
	l-14.5,42.2H608.3z"/>
<g>
	<path class="st0" d="M753.8,79.7c0-2.9,0.8-5.1,2.4-6.7c1.6-1.6,3.8-2.3,6.8-2.3c2.8,0,5,0.8,6.6,2.3c1.6,1.6,2.4,3.8,2.4,6.7
		c0,2.7-0.8,4.9-2.4,6.5c-1.6,1.6-3.8,2.4-6.6,2.4c-2.9,0-5.2-0.8-6.8-2.4C754.6,84.6,753.8,82.5,753.8,79.7z"/>
	<rect x="754.7" y="101" class="st0" width="16.1" height="77.2"/>
</g>
<g>
	<path class="st0" d="M853.2,79.7c0-2.9,0.8-5.1,2.4-6.7c1.6-1.6,3.8-2.3,6.8-2.3c2.8,0,5,0.8,6.6,2.3c1.6,1.6,2.4,3.8,2.4,6.7
		c0,2.7-0.8,4.9-2.4,6.5c-1.6,1.6-3.8,2.4-6.6,2.4c-2.9,0-5.2-0.8-6.8-2.4C854,84.6,853.2,82.5,853.2,79.7z"/>
	<rect x="854.2" y="101" class="st0" width="16.1" height="77.2"/>
</g>
<path class="st0" d="M932.7,101h17.6l20.6,58.9l20.7-58.9h17.6l-33.1,87.3c-5.9,15.8-15.7,23.7-29.5,23.7c-3.6,0-7-0.4-10.4-1.2
	v-12.8c2.4,0.5,5.2,0.8,8.3,0.8c7.8,0,13.2-4.5,16.4-13.5l2.8-7.1L932.7,101z"/>
<path class="st0" d="M688.5,113.2h12.6v65h16.2v-65h11.2h0.7l4.3-12.2h-4.9h-11.2v-3.6c0-4.5,0.8-7.9,2.5-10.2
	c1.7-2.3,4.3-3.4,8-3.4c3.6,0,7.4,0.6,11.4,1.9l4.3-12.2c-5.5-1.9-11.1-2.8-16.7-2.8c-8.6,0-15.1,2.2-19.3,6.5
	c-4.2,4.3-6.3,11-6.3,19.9v3.8h-8.3L688.5,113.2z"/>
<path class="st0" d="M637.6,113.2h12.6v65h16.2v-65h11.2h0.7l4.3-12.2h-4.9h-11.2v-3.6c0-4.5,0.8-7.9,2.5-10.2s4.3-3.4,8-3.4
	c3.6,0,7.4,0.6,11.4,1.9l4.3-12.2c-5.5-1.9-11.1-2.8-16.7-2.8c-8.6,0-15.1,2.2-19.3,6.5c-4.2,4.3-6.3,11-6.3,19.9v3.8h-8.3
	L637.6,113.2z"/>
<path class="st0" d="M815.8,101c-5.1,0-9.8,1-14,2.9c-2.7,1.3-5,3-7,4.9l-1.8-7.9h-12.4v77.2h16.1v-37.8l0-15c0-4,2.3-7.7,5.9-9.4
	c2.7-1.2,5.8-1.9,9.4-1.9c5.1,0,8.9,1.4,11.2,4.3c2.4,2.9,3.5,7.2,3.5,13.1v46.6h16.2v-49.5C843.2,110.3,834.1,101,815.8,101z"/>
<g>
	<polygon class="st1" points="143.3,178.7 64.8,178.7 64.8,149.5 35.4,149.5 35.4,119 92.6,119 92.6,70.7 143.3,70.7 	"/>
	<polygon class="st2" points="92.6,119 -0.6,119 -0.6,25.8 65.9,25.8 65.9,51.4 92.6,51.4 	"/>
	<rect x="-0.6" y="149.5" class="st3" width="65.4" height="65.4"/>
	<rect x="65.9" y="0.1" class="st4" width="51.3" height="51.3"/>
</g>
</svg>
